<svg xmlns="http://www.w3.org/2000/svg" viewBox="0 15.260000228881836 286.2300109863281 49.72999572753906" data-asc="1.009765625" width="286.2300109863281" height="49.72999572753906"><defs/><g fill="#000000"><g transform="translate(0, 0)"><path d="M29.74 19.65Q29.74 20.31 29.53 21.24Q29.32 22.17 28.93 23.17Q28.54 24.17 27.99 25.16Q27.44 26.15 26.73 26.94Q26.03 27.73 25.20 28.22Q24.37 28.71 23.41 28.71Q23.19 28.71 22.84 28.67Q22.49 28.64 22.13 28.50Q21.78 28.37 21.52 28.10Q21.26 27.83 21.26 27.39Q21.26 27.10 21.42 26.71Q21.58 26.32 22.00 25.81Q22.44 25.32 22.95 24.65Q23.46 23.97 23.88 23.24Q24.29 22.51 24.57 21.80Q24.85 21.09 24.85 20.53Q24.85 19.82 24.52 19.40Q24.19 18.97 23.39 18.97Q22.34 18.97 21.02 19.65Q19.70 20.34 18.26 21.53Q16.82 22.73 15.33 24.33Q13.84 25.93 12.45 27.75Q11.06 29.57 9.83 31.53Q8.59 33.50 7.68 35.41Q6.76 37.33 6.24 39.10Q5.71 40.87 5.71 42.31Q5.71 44.09 6.67 45.17Q7.62 46.24 9.81 46.24Q10.84 46.24 12.87 45.45Q14.89 44.65 16.25 43.86Q17.60 43.07 18.98 42.10Q20.36 41.14 21.61 40.25Q22.85 39.36 23.88 38.64Q24.90 37.92 25.56 37.62Q25.68 37.52 25.85 37.52Q26.22 37.52 26.35 38.12Q26.49 38.72 26.49 39.48Q26.49 39.89 26.38 40.49Q26.27 41.09 25.68 41.87Q25.42 42.19 24.68 42.94Q23.95 43.70 22.85 44.65Q21.75 45.61 20.34 46.63Q18.92 47.66 17.27 48.51Q15.63 49.37 13.02 50.20Q10.42 51.03 8.50 51.03Q6.23 51.03 4.61 50.48Q3.00 49.93 1.98 48.95Q0.95 47.97 0.48 46.62Q0 45.26 0 43.65Q0 41.65 0.61 39.36Q1.22 37.06 2.31 34.69Q3.39 32.32 4.90 29.96Q6.40 27.59 8.19 25.43Q9.99 23.27 12.01 21.41Q14.04 19.56 16.16 18.19Q18.29 16.82 20.43 16.04Q22.58 15.26 24.66 15.26Q25.68 15.26 26.61 15.49Q27.54 15.72 28.23 16.24Q28.93 16.75 29.33 17.59Q29.74 18.43 29.74 19.65ZM28.47 43.43Q28.20 43.99 27.94 44.74Q27.69 45.48 27.69 46.07Q27.69 46.44 27.83 46.66Q27.98 46.88 28.39 46.88Q28.91 46.88 29.68 46.57Q30.44 46.26 31.34 45.76Q32.23 45.26 33.19 44.62Q34.16 43.97 35.11 43.27Q36.06 42.58 36.93 41.88Q37.79 41.19 38.48 40.60Q38.67 40.43 38.94 40.36Q39.21 40.28 39.40 40.28Q39.89 40.28 40.21 40.63Q40.53 40.97 40.53 41.53Q40.53 42.04 40.19 42.68Q39.84 43.31 38.99 43.92Q37.43 45.36 35.84 46.66Q34.25 47.95 32.68 48.94Q31.10 49.93 29.55 50.51Q28.00 51.10 26.54 51.10Q25.54 51.10 24.87 50.83Q24.19 50.56 23.79 50.10Q23.39 49.63 23.22 49.00Q23.05 48.36 23.05 47.66Q23.05 46.46 23.40 45.20Q23.75 43.95 24.24 42.90Q25.10 40.99 25.98 39.11Q26.86 37.23 27.59 35.67L34.99 19.92Q35.42 18.97 36.17 18.58Q36.91 18.19 37.67 18.19Q38.43 18.19 39.05 18.60Q39.67 19.02 39.67 19.95Q39.67 20.39 39.47 20.87Q39.26 21.36 38.94 21.92Q38.33 23.07 37.49 24.73Q36.65 26.39 35.68 28.34Q34.72 30.30 33.70 32.41Q32.69 34.52 31.73 36.52Q30.76 38.53 29.92 40.32Q29.08 42.11 28.47 43.43ZM46.61 37.04Q45.46 37.04 44.40 37.61Q43.33 38.18 42.52 39.12Q41.70 40.06 41.21 41.25Q40.72 42.43 40.72 43.68Q40.72 44.14 40.80 44.69Q40.87 45.24 41.10 45.72Q41.33 46.19 41.77 46.51Q42.21 46.83 42.94 46.83Q44.07 46.83 45.13 46.23Q46.19 45.63 47.02 44.67Q47.85 43.70 48.34 42.48Q48.83 41.26 48.83 40.01Q48.83 39.53 48.77 39.00Q48.71 38.48 48.47 38.04Q48.24 37.60 47.80 37.32Q47.36 37.04 46.61 37.04M47.88 32.74Q48.80 32.74 49.87 32.98Q50.93 33.23 51.83 33.81Q52.73 34.40 53.33 35.36Q53.93 36.33 53.93 37.74Q53.93 38.48 53.74 39.42Q53.54 40.36 53.15 41.38Q53.39 41.67 53.71 41.80Q54.03 41.92 54.39 41.92Q54.91 41.92 55.53 41.63Q56.15 41.33 56.81 40.87Q57.47 40.41 58.13 39.82Q58.79 39.23 59.38 38.65Q59.96 38.06 60.44 37.54Q60.91 37.01 61.23 36.65Q61.40 36.47 61.65 36.47Q61.99 36.47 62.26 36.83Q62.52 37.18 62.52 37.82Q62.52 38.45 62.15 39.28Q61.77 40.11 60.74 41.02Q60.16 41.65 59.40 42.48Q58.64 43.31 57.79 44.04Q56.93 44.78 56.01 45.29Q55.08 45.80 54.15 45.80Q53.52 45.80 52.92 45.61Q52.32 45.41 51.71 44.97Q50.83 46.34 49.71 47.46Q48.58 48.58 47.20 49.39Q45.83 50.20 44.23 50.65Q42.63 51.10 40.82 51.10Q40.14 51.10 39.23 50.83Q38.33 50.56 37.51 49.94Q36.69 49.32 36.13 48.32Q35.57 47.31 35.57 45.87Q35.57 44.90 35.89 43.53Q36.21 42.16 36.85 40.71Q37.50 39.26 38.49 37.83Q39.48 36.40 40.84 35.27Q42.21 34.13 43.97 33.44Q45.73 32.74 47.88 32.74ZM79.08 45.02Q77.25 46.41 75.42 47.20Q73.58 48.00 71.36 48.00Q70.63 48.00 69.95 47.73Q69.26 47.46 68.16 46.78Q66.55 48.90 64.93 50Q63.31 51.10 61.55 51.10Q60.69 51.10 59.91 50.79Q59.13 50.49 58.54 49.88Q57.96 49.27 57.60 48.36Q57.25 47.46 57.25 46.26Q57.25 44.80 57.58 43.10Q57.91 41.41 58.37 39.79Q58.84 38.18 59.29 36.82Q59.74 35.45 60.01 34.64Q60.50 33.62 61.24 33.17Q61.99 32.71 62.70 32.71Q63.01 32.71 63.34 32.82Q63.67 32.93 63.94 33.13Q64.21 33.33 64.38 33.59Q64.55 33.86 64.55 34.18Q64.55 34.45 64.45 34.64Q64.09 35.82 63.59 37.19Q63.09 38.57 62.65 39.97Q62.21 41.36 61.90 42.69Q61.60 44.02 61.60 45.12Q61.60 45.29 61.65 45.57Q61.69 45.85 61.77 46.11Q61.84 46.36 61.96 46.55Q62.08 46.73 62.23 46.73Q62.87 46.73 63.65 46.02Q64.43 45.31 65.36 44.07Q66.16 43.21 66.88 42.05Q67.60 40.89 68.25 39.67Q68.90 38.45 69.49 37.27Q70.09 36.08 70.67 35.14Q71.24 34.20 71.80 33.63Q72.36 33.06 72.95 33.06Q73.95 33.06 74.37 33.70Q74.78 34.35 74.78 35.25Q74.78 36.28 74.45 37.13Q74.12 37.99 73.56 38.90Q73.00 39.82 72.23 40.93Q71.46 42.04 70.56 43.58Q70.95 44.09 71.78 44.09Q72.66 44.09 73.60 43.87Q74.54 43.65 75.46 43.25Q76.39 42.85 77.31 42.27Q78.22 41.70 79.08 41.02Q79.44 40.80 79.76 40.80Q80.20 40.80 80.48 41.19Q80.76 41.58 80.76 42.19Q80.76 42.85 80.37 43.62Q79.98 44.38 79.08 45.02ZM87.57 36.08Q87.45 36.06 87.35 36.06Q87.26 36.06 87.13 36.06Q86.21 36.06 85.40 36.43Q84.59 36.79 83.92 37.39Q83.25 37.99 82.73 38.75Q82.20 39.50 81.79 40.25Q81.37 40.99 81.09 41.67Q80.81 42.36 80.66 42.82Q81.52 42.38 82.43 41.82Q83.35 41.26 84.16 40.75Q84.96 40.23 85.56 39.82Q86.16 39.40 86.40 39.26Q87.50 38.57 87.92 37.98Q88.33 37.38 88.33 36.94Q88.33 36.57 88.10 36.35Q87.87 36.13 87.57 36.08M88.45 32.71Q90.48 32.71 91.48 33.69Q92.48 34.67 92.48 36.40Q92.48 37.43 91.94 38.55Q91.41 39.67 90.09 40.83Q88.77 41.99 86.56 43.20Q84.35 44.41 81.03 45.63Q81.15 46.34 81.79 46.74Q82.42 47.14 83.47 47.14Q84.59 47.14 85.88 46.81Q87.16 46.48 88.42 45.97Q89.67 45.46 90.87 44.86Q92.07 44.26 93.03 43.73Q93.99 43.19 94.64 42.80Q95.29 42.41 95.51 42.31Q95.73 42.16 95.91 42.14Q96.09 42.11 96.24 42.11Q96.53 42.11 96.73 42.25Q96.92 42.38 97.06 42.57Q97.19 42.75 97.24 42.96Q97.29 43.16 97.29 43.31Q97.29 43.53 97.24 43.84Q97.19 44.14 96.88 44.53Q96.75 44.65 96.06 45.19Q95.36 45.73 94.26 46.46Q93.16 47.19 91.71 48.01Q90.26 48.83 88.64 49.51Q87.01 50.20 85.25 50.65Q83.50 51.10 81.79 51.10Q80.32 51.10 79.19 50.54Q78.05 49.98 77.26 49.02Q76.46 48.07 76.05 46.83Q75.63 45.58 75.63 44.21Q75.63 43.16 76.05 41.91Q76.46 40.65 77.25 39.38Q78.03 38.11 79.16 36.90Q80.30 35.69 81.71 34.77Q83.13 33.84 84.83 33.28Q86.52 32.71 88.45 32.71ZM103.20 36.25Q104.15 35.67 105.16 35.18Q106.18 34.69 107.13 34.34Q108.08 33.98 108.95 33.78Q109.81 33.57 110.50 33.57Q111.60 33.57 112.19 34.09Q112.79 34.62 112.79 35.86Q112.79 36.13 112.77 36.44Q112.74 36.74 112.67 37.08Q112.55 37.72 111.94 38.57Q111.33 39.43 110.51 40.36Q109.69 41.28 108.75 42.22Q107.81 43.16 107.02 43.96Q106.23 44.75 105.70 45.34Q105.18 45.92 105.18 46.14Q105.18 46.34 105.20 46.41Q105.22 46.48 105.42 46.48Q106.74 45.92 108.36 45.13Q109.99 44.34 111.60 43.51Q113.21 42.68 114.65 41.88Q116.09 41.09 117.09 40.50Q117.31 40.38 117.54 40.30Q117.77 40.21 117.97 40.21Q118.41 40.21 118.70 40.50Q118.99 40.80 118.99 41.28Q118.99 41.85 118.52 42.57Q118.04 43.29 116.92 44.07Q116.06 44.60 115.00 45.28Q113.94 45.95 112.78 46.67Q111.62 47.39 110.44 48.07Q109.25 48.75 108.15 49.29Q107.06 49.83 106.09 50.16Q105.13 50.49 104.42 50.49Q102.73 50.49 101.89 49.68Q101.05 48.88 101.05 47.61Q101.05 47.41 101.07 47.31Q101.25 46.24 101.71 45.24Q102.17 44.24 102.76 43.33Q103.34 42.43 103.98 41.61Q104.61 40.80 105.14 40.08Q105.66 39.36 106.01 38.75Q106.35 38.13 106.35 37.62Q106.35 37.50 106.30 37.38Q106.25 37.26 106.08 37.26Q105.79 37.26 105.11 37.48Q104.44 37.70 103.69 38.06Q102.93 38.43 102.25 38.90Q101.56 39.38 101.27 39.92Q100.88 40.60 100.37 41.65Q99.85 42.70 99.30 43.85Q98.75 45.00 98.24 46.12Q97.73 47.24 97.36 48.05Q97.07 48.75 96.59 49.32Q96.12 49.88 95.56 50.27Q95.00 50.66 94.41 50.88Q93.82 51.10 93.33 51.10Q92.77 51.10 92.44 50.81Q92.11 50.51 92.11 49.85Q92.11 49.58 92.20 49.18Q92.29 48.78 92.55 48.29Q92.99 47.46 93.44 46.48Q93.90 45.51 94.48 44.25Q95.07 42.99 95.84 41.37Q96.61 39.75 97.66 37.62Q97.31 37.33 97.08 36.90Q96.85 36.47 96.85 35.84Q96.85 35.25 97.09 34.83Q97.34 34.40 97.75 34.13Q98.17 33.86 98.72 33.73Q99.27 33.59 99.88 33.59Q100.51 33.59 101.15 33.70Q101.78 33.81 102.28 34.03Q102.78 34.25 103.10 34.57Q103.42 34.89 103.42 35.30Q103.42 35.38 103.37 35.50Q103.32 35.62 103.26 35.77Q103.20 35.91 103.15 36.04Q103.10 36.16 103.10 36.23Q103.10 36.28 103.13 36.28L103.15 36.28L103.20 36.25ZM122.53 36.91Q121.63 38.67 120.83 40.34Q120.02 42.02 119.31 43.43Q119.02 44.02 118.74 44.79Q118.46 45.56 118.46 46.14Q118.46 46.48 118.62 46.68Q118.77 46.88 119.14 46.88Q119.65 46.88 120.43 46.57Q121.22 46.26 122.12 45.76Q123.02 45.26 124.02 44.62Q125.02 43.97 125.99 43.27Q126.95 42.58 127.83 41.88Q128.71 41.19 129.39 40.60Q129.79 40.33 130.13 40.33Q130.54 40.33 130.81 40.70Q131.08 41.06 131.08 41.63Q131.08 42.19 130.81 42.77Q130.54 43.36 129.83 43.92Q128.25 45.36 126.62 46.66Q125 47.95 123.40 48.94Q121.80 49.93 120.24 50.51Q118.68 51.10 117.21 51.10Q116.24 51.10 115.58 50.84Q114.92 50.59 114.51 50.13Q114.11 49.68 113.94 49.08Q113.77 48.49 113.77 47.80Q113.77 46.58 114.18 45.26Q114.60 43.95 115.11 42.90Q115.84 41.38 116.56 39.89Q117.29 38.40 117.97 37.04L116.92 37.04Q115.55 37.04 115.04 36.60Q114.53 36.16 114.53 35.60Q114.53 35.35 114.69 35.00Q114.84 34.64 115.15 34.34Q115.45 34.03 115.89 33.81Q116.33 33.59 116.89 33.59L119.53 33.59L124.68 23.36Q125.17 22.44 125.89 22.03Q126.61 21.63 127.39 21.63Q128.13 21.63 128.74 22.02Q129.35 22.41 129.35 23.32Q129.35 23.78 129.14 24.26Q128.93 24.73 128.59 25.37Q128.37 25.78 128.05 26.35Q127.73 26.93 127.38 27.58Q127.03 28.22 126.65 28.93Q126.27 29.64 125.90 30.30Q125.07 31.86 124.15 33.59L132.10 33.59Q132.69 33.59 133.18 33.65Q133.67 33.72 134.02 33.90Q134.38 34.08 134.57 34.40Q134.77 34.72 134.77 35.25Q134.77 35.52 134.68 35.79Q134.59 36.06 134.36 36.28Q134.13 36.50 133.73 36.65Q133.33 36.79 132.69 36.84L122.53 36.91ZM137.79 37.16Q136.65 37.16 135.57 37.74Q134.50 38.33 133.67 39.28Q132.84 40.23 132.35 41.42Q131.86 42.60 131.86 43.80Q131.86 44.29 131.92 44.81Q131.98 45.34 132.20 45.78Q132.42 46.22 132.82 46.51Q133.23 46.80 133.91 46.80Q134.45 46.80 135.17 46.33Q135.89 45.85 136.66 45.10Q137.43 44.36 138.16 43.47Q138.89 42.58 139.48 41.72Q140.06 40.87 140.43 40.19Q140.80 39.50 140.80 39.18Q140.80 38.72 140.48 38.34Q140.16 37.96 139.70 37.70Q139.23 37.43 138.71 37.29Q138.18 37.16 137.79 37.16M154.71 43.46Q154.27 43.87 153.54 44.60Q152.81 45.34 151.87 46.19Q150.93 47.05 149.87 47.91Q148.80 48.78 147.69 49.49Q146.58 50.20 145.51 50.65Q144.43 51.10 143.48 51.10Q142.63 51.10 142.02 50.73Q141.41 50.37 141.00 49.78Q140.60 49.19 140.41 48.45Q140.21 47.71 140.21 46.92Q140.21 46.41 140.28 45.91Q140.36 45.41 140.53 44.97Q139.77 46.00 138.81 47.08Q137.84 48.17 136.73 49.06Q135.62 49.95 134.41 50.52Q133.20 51.10 131.96 51.10Q131.32 51.10 130.48 50.84Q129.64 50.59 128.88 50Q128.13 49.41 127.61 48.49Q127.10 47.56 127.10 46.22Q127.10 45.21 127.40 43.82Q127.71 42.43 128.33 40.93Q128.96 39.43 129.92 37.96Q130.88 36.50 132.20 35.34Q133.52 34.18 135.21 33.46Q136.89 32.74 138.96 32.74Q140.04 32.74 140.84 33.01Q141.65 33.28 142.21 33.59Q142.85 33.98 143.33 34.45Q143.75 34.23 144.19 34.03Q144.56 33.86 144.96 33.73Q145.36 33.59 145.65 33.59Q146.58 33.59 147.17 34.11Q147.75 34.62 147.75 35.23Q147.75 35.40 147.73 35.50Q147.61 35.96 147.35 36.67Q147.09 37.38 146.78 38.24Q146.46 39.11 146.13 40.05Q145.80 40.99 145.53 41.89Q145.26 42.80 145.09 43.59Q144.92 44.38 144.92 44.95Q144.92 45.68 145.17 46.15Q145.41 46.63 146.00 46.63Q146.36 46.63 146.86 46.40Q147.36 46.17 147.95 45.78Q148.54 45.39 149.16 44.89Q149.78 44.38 150.37 43.87Q151.73 42.65 153.27 41.09Q153.66 40.77 154.03 40.77Q154.52 40.77 154.85 41.25Q155.18 41.72 155.18 42.31Q155.18 42.99 154.71 43.46ZM170.56 17.09Q169.65 18.80 168.66 20.54Q167.68 22.29 166.65 24.02Q165.63 25.76 164.64 27.45Q163.65 29.15 162.74 30.74Q162.38 31.37 161.78 31.71Q161.18 32.06 160.62 32.06Q160.18 32.06 159.90 31.85Q159.62 31.64 159.62 31.23Q159.62 31.10 159.64 30.98Q159.67 30.86 159.74 30.74Q160.52 28.91 161.30 27.06Q162.08 25.22 162.82 23.47Q163.55 21.73 164.23 20.10Q164.92 18.48 165.48 17.09Q165.65 16.70 165.95 16.41Q166.26 16.11 166.66 15.92Q167.07 15.72 167.53 15.64Q167.99 15.55 168.46 15.55Q169.34 15.55 170.01 15.84Q170.68 16.14 170.68 16.67Q170.68 16.77 170.65 16.89Q170.63 17.02 170.56 17.09ZM175.56 36.74Q177.05 37.52 178.22 38.53Q179.39 39.53 180.21 40.64Q181.03 41.75 181.46 42.90Q181.88 44.04 181.88 45.14Q181.88 46.53 181.09 47.64Q180.30 48.75 179.02 49.52Q177.73 50.29 176.09 50.70Q174.44 51.10 172.75 51.10Q171.48 51.10 170.29 50.82Q169.09 50.54 168.10 49.95Q167.11 49.37 166.41 48.45Q165.70 47.53 165.41 46.26Q165.36 46.07 165.36 45.95Q165.36 45.29 165.82 44.81Q166.28 44.34 166.85 44.34Q167.11 44.34 167.44 44.43Q167.77 44.53 167.94 44.87Q168.26 45.46 168.84 45.92Q169.41 46.39 170.12 46.72Q170.83 47.05 171.62 47.23Q172.41 47.41 173.17 47.41Q173.95 47.41 174.67 47.27Q175.39 47.12 175.94 46.80Q176.49 46.48 176.81 46.00Q177.12 45.51 177.12 44.80Q177.12 43.55 176.56 42.50Q176.00 41.46 175.11 40.56Q174.22 39.67 173.08 38.90Q171.95 38.13 170.83 37.43Q170.70 37.35 170.46 37.00Q170.21 36.65 170.21 36.28Q170.21 35.99 170.36 35.82Q170.75 35.30 171.26 34.77Q171.78 34.23 172.36 33.78Q172.95 33.33 173.63 33.04Q174.32 32.76 175.05 32.76Q175.59 32.76 176.05 32.91Q176.51 33.06 176.83 33.29Q177.15 33.52 177.33 33.80Q177.51 34.08 177.51 34.33Q177.51 34.67 177.34 34.99Q177.17 35.30 176.89 35.60Q176.61 35.89 176.26 36.18Q175.90 36.47 175.56 36.74ZM213.96 27.93Q216.14 27.05 217.77 26.12Q219.41 25.20 220.51 24.28Q221.61 23.36 222.17 22.51Q222.73 21.66 222.73 20.95Q222.73 20.70 222.49 20.39Q222.24 20.07 221.74 19.80Q221.24 19.53 220.48 19.35Q219.73 19.17 218.73 19.17Q216.04 19.17 213.75 19.81Q211.45 20.46 209.57 21.39Q207.69 22.31 206.25 23.33Q204.81 24.34 203.83 25.10Q203.22 25.56 202.77 26.01Q202.32 26.46 201.89 26.82Q201.46 27.17 200.98 27.39Q200.49 27.61 199.80 27.61Q198.78 27.61 198.21 27.12Q197.63 26.64 197.63 25.76Q197.63 24.71 198.46 23.52Q199.29 22.34 200.76 21.17Q202.22 20.00 204.20 18.93Q206.18 17.87 208.46 17.07Q210.74 16.26 213.22 15.77Q215.70 15.28 218.19 15.28Q220.75 15.28 222.61 15.70Q224.46 16.11 225.65 16.85Q226.83 17.58 227.40 18.58Q227.98 19.58 227.98 20.75Q227.98 21.92 227.20 23.19Q226.42 24.46 224.96 25.73Q223.51 27.00 221.42 28.16Q219.34 29.32 216.72 30.27Q219.31 31.13 220.94 32.07Q222.56 33.01 223.47 34.02Q224.39 35.03 224.71 36.12Q225.02 37.21 225.02 38.35Q225.02 40.04 224.10 41.67Q223.17 43.31 221.52 44.76Q219.87 46.22 217.61 47.45Q215.36 48.68 212.70 49.57Q210.03 50.46 207.08 50.96Q204.13 51.46 201.10 51.46Q200.02 51.46 198.93 51.34Q197.83 51.22 196.91 50.90Q196.00 50.59 195.42 50.05Q194.85 49.51 194.85 48.66Q194.85 48.56 194.86 48.47Q194.87 48.39 194.90 48.27Q195.00 48.07 195.12 47.79Q195.24 47.51 195.68 47.24Q196.12 46.97 197.06 46.79Q198.00 46.61 199.76 46.61Q202.81 41.02 204.80 36.98Q206.79 32.93 208.13 30.32Q209.47 27.71 210.39 26.46Q211.30 25.22 212.18 25.22Q212.57 25.22 212.94 25.34Q213.31 25.46 213.59 25.67Q213.87 25.88 214.04 26.18Q214.21 26.49 214.21 26.86Q214.01 27.10 213.99 27.36Q213.96 27.61 213.96 27.93M212.62 32.59Q211.52 35.08 210.56 37.06Q209.59 39.04 208.74 40.69Q207.89 42.33 207.12 43.76Q206.35 45.19 205.62 46.56Q208.45 46.31 210.90 45.57Q213.35 44.82 215.17 43.73Q216.99 42.63 218.03 41.26Q219.07 39.89 219.07 38.38Q219.07 37.70 218.76 36.94Q218.46 36.18 217.72 35.42Q216.99 34.67 215.75 33.94Q214.50 33.20 212.62 32.59ZM230.86 43.43Q230.59 43.99 230.33 44.74Q230.08 45.48 230.08 46.07Q230.08 46.44 230.22 46.66Q230.37 46.88 230.79 46.88Q231.30 46.88 232.07 46.57Q232.84 46.26 233.73 45.76Q234.62 45.26 235.58 44.62Q236.55 43.97 237.50 43.27Q238.45 42.58 239.32 41.88Q240.19 41.19 240.87 40.60Q241.06 40.43 241.33 40.36Q241.60 40.28 241.80 40.28Q242.29 40.28 242.60 40.63Q242.92 40.97 242.92 41.53Q242.92 42.04 242.58 42.68Q242.24 43.31 241.38 43.92Q239.82 45.36 238.23 46.66Q236.65 47.95 235.07 48.94Q233.50 49.93 231.95 50.51Q230.40 51.10 228.93 51.10Q227.93 51.10 227.26 50.83Q226.59 50.56 226.18 50.10Q225.78 49.63 225.61 49.00Q225.44 48.36 225.44 47.66Q225.44 46.46 225.79 45.20Q226.15 43.95 226.64 42.90Q227.49 40.99 228.37 39.11Q229.25 37.23 229.98 35.67L237.38 19.92Q237.82 18.97 238.56 18.58Q239.31 18.19 240.06 18.19Q240.82 18.19 241.44 18.60Q242.07 19.02 242.07 19.95Q242.07 20.39 241.86 20.87Q241.65 21.36 241.33 21.92Q240.72 23.07 239.88 24.73Q239.04 26.39 238.07 28.34Q237.11 30.30 236.10 32.41Q235.08 34.52 234.12 36.52Q233.15 38.53 232.31 40.32Q231.47 42.11 230.86 43.43ZM249.00 37.04Q247.85 37.04 246.79 37.61Q245.73 38.18 244.91 39.12Q244.09 40.06 243.60 41.25Q243.12 42.43 243.12 43.68Q243.12 44.14 243.19 44.69Q243.26 45.24 243.49 45.72Q243.73 46.19 244.17 46.51Q244.60 46.83 245.34 46.83Q246.46 46.83 247.52 46.23Q248.58 45.63 249.41 44.67Q250.24 43.70 250.73 42.48Q251.22 41.26 251.22 40.01Q251.22 39.53 251.16 39.00Q251.10 38.48 250.87 38.04Q250.63 37.60 250.20 37.32Q249.76 37.04 249.00 37.04M250.27 32.74Q251.20 32.74 252.26 32.98Q253.32 33.23 254.22 33.81Q255.13 34.40 255.73 35.36Q256.32 36.33 256.32 37.74Q256.32 38.48 256.13 39.42Q255.93 40.36 255.54 41.38Q255.79 41.67 256.10 41.80Q256.42 41.92 256.79 41.92Q257.30 41.92 257.92 41.63Q258.54 41.33 259.20 40.87Q259.86 40.41 260.52 39.82Q261.18 39.23 261.77 38.65Q262.35 38.06 262.83 37.54Q263.31 37.01 263.62 36.65Q263.79 36.47 264.04 36.47Q264.38 36.47 264.65 36.83Q264.92 37.18 264.92 37.82Q264.92 38.45 264.54 39.28Q264.16 40.11 263.13 41.02Q262.55 41.65 261.79 42.48Q261.04 43.31 260.18 44.04Q259.33 44.78 258.40 45.29Q257.47 45.80 256.54 45.80Q255.91 45.80 255.31 45.61Q254.71 45.41 254.10 44.97Q253.22 46.34 252.10 47.46Q250.98 48.58 249.60 49.39Q248.22 50.20 246.62 50.65Q245.02 51.10 243.21 51.10Q242.53 51.10 241.63 50.83Q240.72 50.56 239.90 49.94Q239.09 49.32 238.53 48.32Q237.96 47.31 237.96 45.87Q237.96 44.90 238.28 43.53Q238.60 42.16 239.25 40.71Q239.89 39.26 240.88 37.83Q241.87 36.40 243.24 35.27Q244.60 34.13 246.36 33.44Q248.12 32.74 250.27 32.74ZM271.68 32.74Q272.75 32.74 273.56 33.01Q274.37 33.28 274.93 33.59Q275.56 33.98 276.05 34.45Q276.39 34.23 276.78 34.03Q277.12 33.86 277.54 33.73Q277.95 33.59 278.37 33.59Q279.44 33.59 280.03 34.03Q280.62 34.47 280.62 35.08Q280.62 35.40 280.44 35.72L274.73 46.53L275.20 46.12Q278.08 44.43 279.93 43.47Q281.79 42.50 282.89 42.04Q283.98 41.58 284.46 41.47Q284.94 41.36 285.06 41.36Q285.62 41.36 285.93 41.78Q286.23 42.21 286.23 42.85Q286.23 43.55 285.83 44.29Q285.42 45.02 284.59 45.34Q283.50 45.90 282.03 46.55Q280.57 47.19 278.98 47.97Q277.39 48.75 275.79 49.72Q274.19 50.68 272.80 51.86L268.07 60.42Q267.48 61.82 267.00 62.70Q266.53 63.57 266.06 64.09Q265.60 64.60 265.11 64.79Q264.62 64.99 263.99 64.99Q263.04 64.99 262.49 64.33Q261.94 63.67 261.94 62.74Q261.94 61.77 262.40 60.47Q262.87 59.18 263.71 57.68Q264.55 56.18 265.75 54.53Q266.94 52.88 268.41 51.17L271.44 47.31Q270.51 48.17 269.60 48.78Q268.70 49.39 267.87 49.77Q267.04 50.15 266.32 50.32Q265.60 50.49 265.06 50.49Q264.09 50.49 263.26 50.04Q262.43 49.58 261.83 48.78Q261.23 47.97 260.89 46.88Q260.55 45.78 260.55 44.48Q260.55 41.80 261.58 39.62Q262.62 37.45 264.25 35.93Q265.87 34.40 267.83 33.57Q269.80 32.74 271.68 32.74M270.75 37.04Q269.60 37.04 268.53 37.61Q267.46 38.18 266.63 39.12Q265.80 40.06 265.31 41.28Q264.82 42.50 264.82 43.80Q264.82 44.19 264.88 44.64Q264.94 45.09 265.15 45.48Q265.36 45.87 265.76 46.13Q266.16 46.39 266.87 46.39Q267.38 46.39 268.08 45.94Q268.77 45.48 269.52 44.79Q270.26 44.09 270.97 43.25Q271.68 42.41 272.25 41.60Q272.83 40.80 273.17 40.15Q273.51 39.50 273.51 39.18Q273.51 38.65 273.22 38.24Q272.92 37.84 272.50 37.57Q272.07 37.30 271.59 37.17Q271.12 37.04 270.75 37.04Z"/></g></g></svg>