<svg class="svg-icon" style="width: 1em; height: 1em;vertical-align: middle;fill: currentColor;overflow: hidden;" viewBox="0 0 1024 1024" version="1.1" xmlns="http://www.w3.org/2000/svg"><path d="M957.1 183.2c-0.2-0.4-0.3-0.8-0.5-1.2-0.7-1.7-1.6-3.3-2.5-4.8-0.3-0.5-0.7-1.1-1-1.6-0.5-0.8-1.1-1.6-1.6-2.3-0.2-0.3-0.4-0.6-0.7-0.9-0.4-0.6-0.9-1.1-1.4-1.7-0.5-0.5-1-1.1-1.5-1.6-2.3-2.4-4.9-4.6-7.7-6.4-0.7-0.4-1.4-0.9-2.1-1.3-2.8-1.7-5.9-3-9-4l-0.6-0.2c-0.5-0.2-1.1-0.3-1.7-0.4-3.7-1-7.6-1.5-11.4-1.5H106.7l-0.9 0.1h-0.2C82.2 157 64 176.6 64.1 200.1c0 12.2 5 23.9 13.8 32.3l404.8 404.8c18 17.6 46.7 17.7 64.8 0.2l323.3-323.3v468.6h-717V648.2c0-24.7-20.1-44.8-44.8-44.8-24.7 0-44.8 20.1-44.8 44.8v179.3c0 24.7 20.1 44.8 44.8 44.8h806.6c24.7 0 44.8-20.1 44.8-44.8V200.1c-0.1-5.8-1.2-11.5-3.3-16.9z m-442 359.7l-298-298h596l-298 298z" fill="" /><path d="M108.9 513.8c24.7 0 44.8-20.1 44.8-44.8v-44.8c0-24.7-20.1-44.8-44.8-44.8-24.7 0-44.8 20.1-44.8 44.8V469c0 24.7 20 44.8 44.8 44.8z" fill="" /></svg>